<svg width="41" height="41" viewBox="0 0 41 41" fill="none" xmlns="http://www.w3.org/2000/svg">
<g id="&#240;&#159;&#166;&#134; icon &#34;museum&#34;">
<path id="Vector" d="M36.7292 18.7917C37.2075 18.7917 37.5834 18.4158 37.5834 17.9375V15.8192C37.5834 15.5458 37.4467 15.2725 37.2246 15.1188L21.4738 4.10001C20.8929 3.69001 20.1071 3.69001 19.5092 4.10001L3.77544 15.1188C3.55335 15.2725 3.41669 15.5458 3.41669 15.8192V17.9375C3.41669 18.4158 3.79252 18.7917 4.27085 18.7917H6.83335V34.1667H5.12502C4.18544 34.1667 3.41669 34.9354 3.41669 35.875C3.41669 36.8146 4.18544 37.5833 5.12502 37.5833H35.875C36.8146 37.5833 37.5834 36.8146 37.5834 35.875C37.5834 34.9354 36.8146 34.1667 35.875 34.1667H34.1667V18.7917H36.7292ZM27.3334 29.0417C27.3334 29.9813 26.5646 30.75 25.625 30.75C24.6854 30.75 23.9167 29.9813 23.9167 29.0417V23.9167L21.9179 26.9063C21.2346 27.9142 19.7484 27.9142 19.0821 26.9063L17.0834 23.9167V29.0417C17.0834 29.9813 16.3146 30.75 15.375 30.75C14.4354 30.75 13.6667 29.9813 13.6667 29.0417V21.0125C13.6667 19.7825 14.6575 18.7917 15.8875 18.7917C16.6221 18.7917 17.3225 19.1675 17.7325 19.7825L20.5 23.9167L23.2504 19.7825C23.6775 19.1675 24.3609 18.7917 25.1125 18.7917C26.3425 18.7917 27.3334 19.7825 27.3334 21.0125V29.0417Z" fill="#0A194F"/>
</g>
</svg>
