<svg width="23" height="23" viewBox="0 0 23 23" fill="none" xmlns="http://www.w3.org/2000/svg">
<path d="M11.315 6.14772C14.8887 6.14772 18.0758 8.16229 19.6316 11.3496C18.0758 14.537 14.8981 16.5516 11.315 16.5516C7.73195 16.5516 4.55431 14.537 2.9985 11.3496C4.55431 8.16229 7.74138 6.14772 11.315 6.14772ZM11.315 4.25612C6.60045 4.25612 2.57418 7.19757 0.942932 11.3496C2.57418 15.5017 6.60045 18.4432 11.315 18.4432C16.0296 18.4432 20.0559 15.5017 21.6872 11.3496C20.0559 7.19757 16.0296 4.25612 11.315 4.25612ZM11.315 8.98513C12.6163 8.98513 13.6723 10.0444 13.6723 11.3496C13.6723 12.6549 12.6163 13.7141 11.315 13.7141C10.0138 13.7141 8.95775 12.6549 8.95775 11.3496C8.95775 10.0444 10.0138 8.98513 11.315 8.98513ZM11.315 7.09353C8.97661 7.09353 7.07191 9.00405 7.07191 11.3496C7.07191 13.6952 8.97661 15.6058 11.315 15.6058C13.6535 15.6058 15.5582 13.6952 15.5582 11.3496C15.5582 9.00405 13.6535 7.09353 11.315 7.09353Z" fill="#148B76"/>
<line x1="3.41788" y1="3.10331" x2="18.4179" y2="19.1033" stroke="#148B76" stroke-width="3"/>
</svg>
