<svg width="24" height="25" viewBox="0 0 24 25" fill="none" xmlns="http://www.w3.org/2000/svg">
<g id="&#240;&#159;&#166;&#134; icon &#34;lock&#34;">
<path id="Vector" d="M17.9958 8.72823H17.0235V6.77771C17.0235 4.086 14.8456 1.90143 12.1621 1.90143C9.47855 1.90143 7.30064 4.086 7.30064 6.77771V8.72823H6.32836C5.25884 8.72823 4.38379 9.60596 4.38379 10.6787V20.4313C4.38379 21.5041 5.25884 22.3818 6.32836 22.3818H17.9958C19.0653 22.3818 19.9403 21.5041 19.9403 20.4313V10.6787C19.9403 9.60596 19.0653 8.72823 17.9958 8.72823ZM9.24521 6.77771C9.24521 5.15879 10.5481 3.85194 12.1621 3.85194C13.776 3.85194 15.0789 5.15879 15.0789 6.77771V8.72823H9.24521V6.77771ZM17.9958 20.4313H6.32836V10.6787H17.9958V20.4313ZM12.1621 17.5055C13.2316 17.5055 14.1066 16.6278 14.1066 15.555C14.1066 14.4822 13.2316 13.6045 12.1621 13.6045C11.0925 13.6045 10.2175 14.4822 10.2175 15.555C10.2175 16.6278 11.0925 17.5055 12.1621 17.5055Z" fill="#148B76"/>
</g>
</svg>
