<svg width="24" height="25" viewBox="0 0 24 25" fill="none" xmlns="http://www.w3.org/2000/svg">
<g id="&#240;&#159;&#166;&#134; icon &#34;people&#34;">
<path id="Vector" d="M9.24519 14.1606C6.97005 14.1606 2.43921 15.3016 2.43921 17.574V19.2807H16.0512V17.574C16.0512 15.3016 11.5203 14.1606 9.24519 14.1606ZM4.71435 17.3302C5.53107 16.7645 7.50481 16.1111 9.24519 16.1111C10.9856 16.1111 12.9593 16.7645 13.776 17.3302H4.71435ZM9.24519 12.4539C11.1217 12.4539 12.6482 10.9227 12.6482 9.04047C12.6482 7.15823 11.1217 5.62708 9.24519 5.62708C7.36869 5.62708 5.8422 7.15823 5.8422 9.04047C5.8422 10.9227 7.36869 12.4539 9.24519 12.4539ZM9.24519 7.57759C10.0522 7.57759 10.7036 8.23101 10.7036 9.04047C10.7036 9.84994 10.0522 10.5034 9.24519 10.5034C8.4382 10.5034 7.78677 9.84994 7.78677 9.04047C7.78677 8.23101 8.4382 7.57759 9.24519 7.57759ZM16.0901 14.2191C17.2179 15.0383 17.9957 16.1306 17.9957 17.574V19.2807H21.8849V17.574C21.8849 15.604 18.4819 14.4824 16.0901 14.2191ZM15.0789 12.4539C16.9554 12.4539 18.4819 10.9227 18.4819 9.04047C18.4819 7.15823 16.9554 5.62708 15.0789 5.62708C14.5539 5.62708 14.0677 5.75386 13.6205 5.96841C14.233 6.83639 14.5928 7.89942 14.5928 9.04047C14.5928 10.1815 14.233 11.2446 13.6205 12.1125C14.0677 12.3271 14.5539 12.4539 15.0789 12.4539Z" fill="#148B76"/>
</g>
</svg>
