<svg width="24" height="24" viewBox="0 0 24 24" fill="none" xmlns="http://www.w3.org/2000/svg">
<g id="&#240;&#159;&#166;&#134; icon &#34;remove red eye&#34;">
<path id="Vector" d="M11.9915 7.0185C15.5651 7.0185 18.7522 9.03306 20.308 12.2204C18.7522 15.4078 15.5746 17.4223 11.9915 17.4223C8.40838 17.4223 5.23074 15.4078 3.67492 12.2204C5.23074 9.03306 8.4178 7.0185 11.9915 7.0185ZM11.9915 5.12689C7.27687 5.12689 3.25061 8.06834 1.61935 12.2204C3.25061 16.3725 7.27687 19.3139 11.9915 19.3139C16.7061 19.3139 20.7323 16.3725 22.3636 12.2204C20.7323 8.06834 16.7061 5.12689 11.9915 5.12689ZM11.9915 9.85591C13.2927 9.85591 14.3488 10.9152 14.3488 12.2204C14.3488 13.5256 13.2927 14.5849 11.9915 14.5849C10.6902 14.5849 9.63417 13.5256 9.63417 12.2204C9.63417 10.9152 10.6902 9.85591 11.9915 9.85591ZM11.9915 7.9643C9.65303 7.9643 7.74833 9.87482 7.74833 12.2204C7.74833 14.566 9.65303 16.4765 11.9915 16.4765C14.3299 16.4765 16.2346 14.566 16.2346 12.2204C16.2346 9.87482 14.3299 7.9643 11.9915 7.9643Z" fill="#148B76"/>
</g>
</svg>
