<svg width="41" height="41" viewBox="0 0 41 41" fill="none" xmlns="http://www.w3.org/2000/svg">
<g id="&#240;&#159;&#166;&#134; icon &#34;menu book&#34;">
<path id="Vector" d="M35.875 8.54164C33.9788 7.94372 31.8946 7.68747 29.8958 7.68747C26.5646 7.68747 22.9771 8.3708 20.5 10.25C18.0229 8.3708 14.4354 7.68747 11.1042 7.68747C7.77293 7.68747 4.18543 8.3708 1.70834 10.25V35.2771C1.70834 35.7041 2.13543 36.1312 2.56251 36.1312C2.73334 36.1312 2.81876 36.0458 2.98959 36.0458C5.29584 34.9354 8.62709 34.1666 11.1042 34.1666C14.4354 34.1666 18.0229 34.85 20.5 36.7291C22.8063 35.2771 26.9917 34.1666 29.8958 34.1666C32.7146 34.1666 35.6188 34.6791 38.0104 35.9604C38.1813 36.0458 38.2667 36.0458 38.4375 36.0458C38.8646 36.0458 39.2917 35.6187 39.2917 35.1916V10.25C38.2667 9.48122 37.1563 8.96872 35.875 8.54164ZM35.875 31.6041C33.9958 31.0062 31.9458 30.75 29.8958 30.75C26.9917 30.75 22.8063 31.8604 20.5 33.3125V13.6666C22.8063 12.2146 26.9917 11.1041 29.8958 11.1041C31.9458 11.1041 33.9958 11.3604 35.875 11.9583V31.6041Z" fill="#0A194F"/>
<path id="Vector_2" d="M29.8958 17.9375C31.3992 17.9375 32.8513 18.0912 34.1667 18.3816V15.785C32.8171 15.5287 31.365 15.375 29.8958 15.375C26.9917 15.375 24.3608 15.8704 22.2083 16.7929V19.6287C24.1388 18.5354 26.8208 17.9375 29.8958 17.9375Z" fill="#0A194F"/>
<path id="Vector_3" d="M22.2083 21.3371V24.1729C24.1388 23.0796 26.8208 22.4817 29.8958 22.4817C31.3992 22.4817 32.8513 22.6354 34.1667 22.9259V20.3292C32.8171 20.0729 31.365 19.9192 29.8958 19.9192C26.9917 19.9192 24.3608 20.4317 22.2083 21.3371Z" fill="#0A194F"/>
<path id="Vector_4" d="M29.8958 24.4804C26.9917 24.4804 24.3608 24.9758 22.2083 25.8983V28.7342C24.1388 27.6408 26.8208 27.0429 29.8958 27.0429C31.3992 27.0429 32.8513 27.1967 34.1667 27.4871V24.8904C32.8171 24.6171 31.365 24.4804 29.8958 24.4804Z" fill="#0A194F"/>
</g>
</svg>
