<svg width="41" height="41" viewBox="0 0 41 41" fill="none" xmlns="http://www.w3.org/2000/svg">
<g id="&#240;&#159;&#166;&#134; icon &#34;brush&#34;">
<path id="Vector" d="M11.9584 27.3334C12.8979 27.3334 13.6667 28.1021 13.6667 29.0417C13.6667 30.9209 12.1292 32.4584 10.25 32.4584C9.9596 32.4584 9.68627 32.4242 9.39585 32.3729C9.92544 31.4334 10.25 30.3059 10.25 29.0417C10.25 28.1021 11.0188 27.3334 11.9584 27.3334ZM31.8946 5.12503C31.4504 5.12503 31.0234 5.29586 30.6817 5.62045L15.375 20.9271L20.0729 25.625L35.3796 10.3184C36.0459 9.65211 36.0459 8.57586 35.3796 7.90961L33.0904 5.62045C32.7488 5.27878 32.3217 5.12503 31.8946 5.12503ZM11.9584 23.9167C9.12252 23.9167 6.83335 26.2059 6.83335 29.0417C6.83335 31.2796 4.85169 32.4584 3.41669 32.4584C4.98835 34.5425 7.67044 35.875 10.25 35.875C14.0254 35.875 17.0834 32.8171 17.0834 29.0417C17.0834 26.2059 14.7942 23.9167 11.9584 23.9167Z" fill="#0A194F"/>
</g>
</svg>
