<svg width="28" height="28" viewBox="0 0 28 28" fill="none" xmlns="http://www.w3.org/2000/svg">
<g id="&#240;&#159;&#166;&#134; icon &#34;support agent&#34;">
<path id="Vector" d="M14 8.39999C13.048 8.39999 8.568 9.11399 8.414 13.832C10.822 13.272 12.698 11.354 13.174 8.91799C13.916 10.528 15.918 12.838 19.376 12.558C18.746 10.164 16.59 8.39999 14 8.39999Z" fill="white"/>
<path id="Vector_2" d="M10.5 16.1C11.0799 16.1 11.55 15.6299 11.55 15.05C11.55 14.4701 11.0799 14 10.5 14C9.92011 14 9.45001 14.4701 9.45001 15.05C9.45001 15.6299 9.92011 16.1 10.5 16.1Z" fill="white"/>
<path id="Vector_3" d="M17.5 16.1C18.0799 16.1 18.55 15.6299 18.55 15.05C18.55 14.4701 18.0799 14 17.5 14C16.9201 14 16.45 14.4701 16.45 15.05C16.45 15.6299 16.9201 16.1 17.5 16.1Z" fill="white"/>
<path id="Vector_4" d="M22.4 14C22.4 9.36601 18.634 5.60001 14 5.60001C9.36601 5.60001 5.60001 9.36601 5.60001 14C4.83001 14 4.20001 14.63 4.20001 15.4V18.2C4.20001 18.97 4.83001 19.6 5.60001 19.6H7.00001V14C7.00001 10.136 10.136 7.00001 14 7.00001C17.864 7.00001 21 10.136 21 14V21H12.6V22.4H21C21.77 22.4 22.4 21.77 22.4 21V19.6C23.17 19.6 23.8 18.97 23.8 18.2V15.4C23.8 14.63 23.17 14 22.4 14Z" fill="white"/>
</g>
</svg>
