<svg width="41" height="41" viewBox="0 0 41 41" fill="none" xmlns="http://www.w3.org/2000/svg">
<path d="M20.5 15.375H27.3333C28.2729 15.375 29.0417 14.6062 29.0417 13.6667C29.0417 12.7271 28.2729 11.9583 27.3333 11.9583H20.5C19.5604 11.9583 18.7917 12.7271 18.7917 13.6667C18.7917 14.6062 19.5604 15.375 20.5 15.375ZM20.5 22.2083H27.3333C28.2729 22.2083 29.0417 21.4396 29.0417 20.5C29.0417 19.5604 28.2729 18.7917 27.3333 18.7917H20.5C19.5604 18.7917 18.7917 19.5604 18.7917 20.5C18.7917 21.4396 19.5604 22.2083 20.5 22.2083ZM20.5 29.0417H27.3333C28.2729 29.0417 29.0417 28.2729 29.0417 27.3333C29.0417 26.3937 28.2729 25.625 27.3333 25.625H20.5C19.5604 25.625 18.7917 26.3937 18.7917 27.3333C18.7917 28.2729 19.5604 29.0417 20.5 29.0417ZM11.9583 11.9583H15.375V15.375H11.9583V11.9583ZM11.9583 18.7917H15.375V22.2083H11.9583V18.7917ZM11.9583 25.625H15.375V29.0417H11.9583V25.625ZM34.1667 5.125H6.83332C5.89373 5.125 5.12498 5.89375 5.12498 6.83333V34.1667C5.12498 35.1062 5.89373 35.875 6.83332 35.875H34.1667C35.1062 35.875 35.875 35.1062 35.875 34.1667V6.83333C35.875 5.89375 35.1062 5.125 34.1667 5.125ZM32.4583 32.4583H8.54165V8.54167H32.4583V32.4583Z" fill="#0A194F"/>
</svg>
